<svg width="15" height="15" viewBox="0 0 16 15" fill="none" xmlns="http://www.w3.org/2000/svg">
<path d="M8.36255 11.7034C5.97552 11.7034 4.04044 9.88007 4.04044 7.63086C4.04044 5.38165 5.97552 3.5583 8.36255 3.5583C10.7496 3.5583 12.6847 5.38165 12.6847 7.63086C12.6847 9.88007 10.7496 11.7034 8.36255 11.7034ZM8.36255 10.963C10.3156 10.963 11.8988 9.47112 11.8988 7.63086C11.8988 5.79059 10.3156 4.29876 8.36255 4.29876C6.40952 4.29876 4.82628 5.79059 4.82628 7.63086C4.82628 9.47112 6.40952 10.963 8.36255 10.963ZM8.75547 2.4476C8.75547 2.65207 8.57955 2.81783 8.36255 2.81783C8.14555 2.81783 7.96963 2.65207 7.96963 2.4476V0.966668C7.96963 0.762194 8.14555 0.596436 8.36255 0.596436C8.57955 0.596436 8.75547 0.762194 8.75547 0.966668V2.4476ZM8.75547 14.295C8.75547 14.4995 8.57955 14.6653 8.36255 14.6653C8.14555 14.6653 7.96963 14.4995 7.96963 14.295V12.8141C7.96963 12.6096 8.14555 12.4439 8.36255 12.4439C8.57955 12.4439 8.75547 12.6096 8.75547 12.8141V14.295ZM13.8634 8.00109C13.6464 8.00109 13.4705 7.83533 13.4705 7.63086C13.4705 7.42639 13.6464 7.26063 13.8634 7.26063H15.4351C15.6521 7.26063 15.828 7.42639 15.828 7.63086C15.828 7.83533 15.6521 8.00109 15.4351 8.00109H13.8634ZM1.29001 8.00109C1.07301 8.00109 0.897095 7.83533 0.897095 7.63086C0.897095 7.42639 1.07301 7.26063 1.29001 7.26063H2.86169C3.07869 7.26063 3.25461 7.42639 3.25461 7.63086C3.25461 7.83533 3.07869 8.00109 2.86169 8.00109H1.29001ZM12.5301 4.22754C12.3766 4.37212 12.1279 4.37212 11.9744 4.22754C11.821 4.08295 11.821 3.84853 11.9744 3.70395L13.0858 2.65677C13.2392 2.51219 13.488 2.51219 13.6414 2.65677C13.7949 2.80136 13.7949 3.03577 13.6414 3.18036L12.5301 4.22754ZM3.63935 12.6049C3.4859 12.7495 3.23712 12.7495 3.08368 12.6049C2.93023 12.4604 2.93023 12.2259 3.08368 12.0814L4.19502 11.0342C4.34846 10.8896 4.59724 10.8896 4.75069 11.0342C4.90413 11.1788 4.90413 11.4132 4.75069 11.5578L3.63935 12.6049ZM11.9744 11.5578C11.821 11.4132 11.821 11.1788 11.9744 11.0342C12.1279 10.8896 12.3766 10.8896 12.5301 11.0342L13.6414 12.0814C13.7949 12.2259 13.7949 12.4604 13.6414 12.6049C13.488 12.7495 13.2392 12.7495 13.0858 12.6049L11.9744 11.5578ZM3.08368 3.18036C2.93023 3.03577 2.93023 2.80136 3.08368 2.65677C3.23712 2.51219 3.4859 2.51219 3.63935 2.65677L4.75069 3.70395C4.90413 3.84853 4.90413 4.08295 4.75069 4.22754C4.59724 4.37212 4.34846 4.37212 4.19502 4.22754L3.08368 3.18036Z" fill="#454545"/>
</svg>
