<svg width="16" height="13" viewBox="0 0 16 13" fill="none" xmlns="http://www.w3.org/2000/svg">
<path d="M8.22265 3.05592C8.79295 1.55076 10.2338 0.516113 11.8796 0.516113C12.1867 0.60891 12.1867 0.60891 12.2224 0.980865C12.1731 1.09006 12.1731 1.09006 12.1505 1.11449C12.1207 1.14786 12.1207 1.14786 12.1017 1.16638C12.0614 1.20543 12.0372 1.22916 12.0089 1.25829C11.9101 1.35988 11.8182 1.47062 11.731 1.60175C11.489 1.96541 11.3457 2.39298 11.3457 2.89897C11.3457 4.066 12.282 5.01207 13.4369 5.01207C13.9376 5.01207 14.3607 4.86725 14.7206 4.62274C14.8504 4.53458 14.96 4.44171 15.0605 4.34193C15.0893 4.31333 15.1128 4.28887 15.1515 4.24814C15.1698 4.22893 15.1698 4.22893 15.2028 4.19881C15.227 4.17597 15.227 4.17597 15.335 4.12622C15.7031 4.16222 15.7031 4.16222 15.795 4.47256C15.795 6.07617 14.8425 7.49218 13.4292 8.10713C13.6309 8.53105 13.7439 9.0062 13.7439 9.50803C13.7439 11.2958 12.3097 12.7451 10.5404 12.7451H4.13352C2.36429 12.7451 0.930054 11.2958 0.930054 9.50803C0.930054 8.11598 1.80668 6.90186 3.07021 6.45352C3.0672 6.39286 3.0657 6.33199 3.0657 6.27094C3.0657 4.2845 4.6593 2.67417 6.6251 2.67417C7.19956 2.67417 7.74224 2.81169 8.22265 3.05592ZM8.83792 3.45352C9.65842 4.11243 10.1845 5.1296 10.1845 6.27094H10.5404C11.554 6.27094 12.4577 6.74662 13.0447 7.48912C13.9977 7.11356 14.712 6.29906 14.974 5.31174C14.5337 5.57646 14.0224 5.73142 13.4369 5.73142C11.8888 5.73142 10.6338 4.46329 10.6338 2.89897C10.6338 2.30724 10.7872 1.79066 11.0492 1.34572C10.0172 1.62538 9.17803 2.41458 8.83792 3.45352ZM8.22663 3.89142C7.77031 3.57721 7.21894 3.39353 6.6251 3.39353C5.05246 3.39353 3.77758 4.68179 3.77758 6.27094C3.77758 6.4037 3.78645 6.53523 3.80401 6.66497L3.84743 6.9857L3.53633 7.06299C2.43213 7.33731 1.64193 8.34267 1.64193 9.50803C1.64193 10.8985 2.75745 12.0258 4.13352 12.0258H10.5404C11.9165 12.0258 13.032 10.8985 13.032 9.50803C13.032 8.99287 12.8789 8.51384 12.6162 8.11489C12.1568 7.41755 11.3848 6.99029 10.5404 6.99029H9.41156L9.45523 6.5911C9.46679 6.48537 9.47262 6.37856 9.47262 6.27094C9.47262 5.30702 9.00044 4.42438 8.22663 3.89142Z" fill="#454545"/>
</svg>
